<svg width="18" height="14" viewBox="0 0 18 14" fill="none" xmlns="http://www.w3.org/2000/svg">
<path d="M8.99893 9.7818C10.6552 9.7818 11.9979 8.53614 11.9979 6.99954C11.9979 5.46294 10.6552 4.21729 8.99893 4.21729C7.34267 4.21729 6 5.46294 6 6.99954C6 8.53614 7.34267 9.7818 8.99893 9.7818Z" fill="#1B595F"/>
<path d="M17.4503 5.20463C16.2869 3.44731 13.6417 0.5 9 0.5C4.35831 0.5 1.71307 3.44731 0.549716 5.20463C-0.183239 6.30468 -0.183239 7.69532 0.549716 8.79537C1.712 10.5527 4.35724 13.5 9 13.5C13.6428 13.5 16.2869 10.5527 17.4503 8.79537C18.1832 7.69532 18.1832 6.30468 17.4503 5.20463V5.20463ZM9 11.1734C6.51563 11.1734 4.50213 9.30537 4.50213 7.00049C4.50213 4.69562 6.51563 2.82662 9 2.82662C11.4844 2.82662 13.4979 4.69463 13.4979 6.99951C13.4957 9.30339 11.4833 11.1704 9 11.1724V11.1734Z" fill="#1B595F"/>
</svg>
