<svg width="15" height="20" viewBox="0 0 15 20" fill="none" xmlns="http://www.w3.org/2000/svg">
<path d="M7.07026 0C7.35668 0 7.64311 0 7.92953 0C8.03127 0.0177083 8.13248 0.0354167 8.23421 0.0520833C10.7562 0.470313 12.4956 2.52135 12.4988 5.08125C12.4998 5.81667 12.4988 6.55208 12.4988 7.2875C12.4988 7.35573 12.4988 7.42396 12.4988 7.50156C12.7429 7.50156 12.9574 7.49688 13.1718 7.5026C14.1667 7.5276 14.99 8.33229 14.9931 9.32813C15.0035 12.276 15.0009 15.224 14.9942 18.1719C14.9921 18.9427 14.4886 19.6214 13.7629 19.8844C13.6429 19.9281 13.5192 19.962 13.3972 20.001H1.60262C1.5301 19.9776 1.45862 19.951 1.38506 19.9312C0.587872 19.7151 0.00771861 18.9979 0.00563173 18.1708C-0.00167237 15.2229 -0.00271581 12.275 0.00563173 9.32708C0.00824033 8.43542 0.674478 7.675 1.55775 7.53646C1.86191 7.48854 2.17547 7.49948 2.5005 7.48229C2.5005 7.40729 2.5005 7.3375 2.5005 7.26719C2.5005 6.47969 2.49372 5.69219 2.50311 4.90521C2.52815 2.81719 3.91437 0.91875 5.89743 0.271875C6.27776 0.148438 6.67896 0.0890625 7.07026 0ZM4.17053 7.48906H10.8293C10.8293 7.41458 10.8293 7.35104 10.8293 7.2875C10.8293 6.55208 10.8329 5.81667 10.8272 5.08125C10.8256 4.86094 10.812 4.63854 10.7786 4.42083C10.512 2.69844 8.77733 1.42865 7.06295 1.69427C5.34179 1.96094 4.17836 3.31406 4.17157 5.06042C4.16896 5.80208 4.17157 6.54427 4.17105 7.28594C4.17105 7.34948 4.17105 7.41354 4.17105 7.48906H4.17053ZM6.67009 14.9807C6.67009 15.1109 6.67009 15.2411 6.67009 15.3714C6.67009 15.5146 6.66853 15.6578 6.67062 15.8005C6.67844 16.3031 7.0353 16.6729 7.50537 16.6682C7.97075 16.6635 8.32343 16.301 8.32812 15.8089C8.33334 15.2625 8.33595 14.7156 8.32604 14.1693C8.32291 14.0099 8.36882 13.9141 8.49977 13.8167C9.11018 13.3646 9.32565 12.5781 9.04653 11.8823C8.76533 11.1802 8.04953 10.7568 7.29981 10.8495C6.61479 10.9339 6.06699 11.412 5.89117 12.0786C5.71535 12.7448 5.95482 13.4234 6.52453 13.8354C6.63149 13.913 6.6774 13.9896 6.67323 14.1219C6.66383 14.4078 6.67009 14.6943 6.67009 14.9807Z" fill="#484848"/>
</svg>
