<svg width="20" height="15" viewBox="0 0 20 15" fill="none" xmlns="http://www.w3.org/2000/svg">
<path d="M0 13.4022C0 10.34 0 7.27774 0 4.2155C0.0292176 4.22801 0.061044 4.23635 0.0866095 4.25355C2.79237 6.0591 5.49761 7.86517 8.20285 9.67123C9.382 10.4583 10.6044 10.4645 11.7778 9.68166C14.4518 7.89957 17.1242 6.11435 19.797 4.33122C19.8539 4.29317 19.9129 4.2572 19.9953 4.20508V4.36458C19.9953 7.28295 19.9963 10.2013 19.9927 13.1202C19.9927 13.2813 19.9734 13.4465 19.9343 13.6029C19.7183 14.4608 18.993 14.9972 18.0529 14.9977C15.3909 14.9993 12.729 14.9977 10.0676 14.9977C7.40615 14.9977 4.65291 14.9967 1.94558 14.9987C1.41549 14.9987 0.949052 14.8429 0.559831 14.4739C0.249915 14.1799 0.0960008 13.8067 0 13.4022Z" fill="#484848"/>
<path d="M0 1.5973C0.0323481 1.48575 0.0600005 1.37265 0.0970443 1.26267C0.352177 0.504274 1.03723 0.0148381 1.86784 0.00284973C2.25185 -0.00288382 2.63585 0.00180727 3.01985 0.00180727C8.02494 0.00180727 13.03 0.00284973 18.0346 0.000764803C18.6169 0.000764803 19.1224 0.174856 19.5179 0.614775C20.264 1.44405 20.1304 2.68354 19.2085 3.31111C17.9934 4.1383 16.7647 4.94673 15.5417 5.76298C14.086 6.73455 12.6309 7.70613 11.1747 8.67718C10.3373 9.23594 9.66008 9.23542 8.82373 8.67718C6.25884 6.96494 3.69864 5.24644 1.12488 3.54774C0.575483 3.18549 0.135132 2.77424 0 2.1055C0 1.9361 0 1.7667 0 1.5973Z" fill="#484848"/>
</svg>
