<svg width="26" height="20" viewBox="0 0 26 20" fill="none" xmlns="http://www.w3.org/2000/svg">
<g clip-path="url(#clip0_378_16044)">
<path d="M6.10285 16.0043C5.2823 15.3796 4.50369 14.8163 3.75689 14.2106C2.46137 13.1589 1.30321 11.9528 0.255667 10.6316C-0.0631523 10.2295 -0.0913471 9.79794 0.213736 9.41634C2.48161 6.57932 5.12615 4.25337 8.41555 2.81479C11.6507 1.39968 14.8613 1.52158 18.0372 3.02755C18.2541 3.13052 18.3647 3.08963 18.5158 2.92836C19.345 2.04477 20.1837 1.17103 21.0194 0.295008C21.2695 0.0322787 21.5652 -0.0653931 21.9093 0.044393C22.231 0.146608 22.4298 0.379809 22.5014 0.719767C22.5788 1.08698 22.4392 1.37848 22.1913 1.63667C21.0526 2.82463 19.9191 4.01789 18.784 5.20888C14.2107 10.0077 9.63877 14.808 5.05891 19.5999C4.89553 19.7711 4.66997 19.9195 4.44875 19.9785C4.08222 20.0762 3.72147 19.8491 3.55447 19.4992C3.3824 19.1396 3.44458 18.7429 3.73809 18.4324C4.44297 17.6859 5.15217 16.9446 5.86211 16.2034C5.93223 16.1307 6.01754 16.0747 6.10285 16.0058V16.0043ZM15.298 6.20983C13.8253 5.0726 11.3775 5.13165 9.80288 6.93517C8.25578 8.70765 8.45893 11.1737 9.4002 12.3972C11.3652 10.3355 13.333 8.27078 15.298 6.20983Z" fill="#ACACAC"/>
<path d="M21.4114 5.0625C21.9868 5.55692 22.6057 6.0218 23.1479 6.56998C24.0364 7.46795 24.8837 8.41211 25.731 9.354C26.0802 9.74242 26.0896 10.1967 25.7751 10.5881C23.479 13.4502 20.807 15.8026 17.4692 17.2253C14.8897 18.3254 12.2603 18.4905 9.58906 17.6054C9.56448 17.597 9.54135 17.5834 9.49219 17.5607C9.5493 17.4903 9.59485 17.4259 9.64834 17.3691C10.5152 16.4583 11.3798 15.5452 12.2538 14.6419C12.3312 14.5624 12.4707 14.492 12.5727 14.5041C14.5658 14.7335 16.4722 13.4486 17.1062 11.4263C17.2971 10.8183 17.3846 10.1959 17.2949 9.55237C17.2819 9.45849 17.3231 9.32372 17.386 9.25633C18.688 7.87832 19.9966 6.50789 21.3044 5.1367C21.3225 5.11777 21.3478 5.10566 21.4099 5.0625H21.4114Z" fill="#ACACAC"/>
</g>
<defs>
<clipPath id="clip0_378_16044">
<rect width="26" height="20" fill="white"/>
</clipPath>
</defs>
</svg>
