<svg width="19" height="15" viewBox="0 0 19 15" fill="none" xmlns="http://www.w3.org/2000/svg">
    <path d="M16.1731 0H2.82688C1.26548 0 0 1.24331 0 2.77675V12.2237C0 13.7572 1.26548 15 2.82688 15H16.1731C17.7345 15 19 13.7572 19 12.2237V2.77675C19 1.24331 17.7345 0 16.1731 0ZM11.1826 9.71376C10.7801 9.70743 10.4708 9.47327 10.3697 9.1145C10.2745 8.77811 10.4083 8.4023 10.7186 8.22753C10.8574 8.14916 11.0309 8.0961 11.1895 8.09366C12.0114 8.08101 12.8337 8.08587 13.656 8.08831C14.1448 8.09025 14.5066 8.43102 14.5126 8.88618C14.519 9.35449 14.1656 9.70597 13.6674 9.71424C13.2536 9.72106 12.8392 9.7157 12.4253 9.7157C12.0109 9.71522 11.5965 9.72057 11.1826 9.71376ZM13.6917 6.91364C12.8575 6.91364 12.0228 6.91705 11.188 6.91218C10.7632 6.90975 10.4326 6.62253 10.3642 6.21361C10.3023 5.84461 10.5347 5.46101 10.907 5.33833C11.016 5.30231 11.137 5.28527 11.252 5.28527C12.8719 5.28186 14.4918 5.27991 16.1112 5.2843C16.7774 5.28624 17.1927 5.8894 16.9166 6.44679C16.7615 6.76078 16.4928 6.91218 16.1399 6.91315C15.324 6.9151 14.5081 6.91364 13.6917 6.91364ZM1.77553 10.4099C1.72497 9.9484 1.7339 9.47279 1.78545 9.01032C1.84939 8.43783 2.37333 7.98024 2.96071 7.94324C4.52955 7.84539 6.09987 7.8303 7.6687 7.94324C8.31557 7.98997 8.83058 8.51572 8.86627 9.15636C8.88659 9.51952 8.89254 9.8856 8.87123 10.2488C8.82265 11.0676 8.29277 11.6328 7.45754 11.7282C6.67882 11.8168 5.89515 11.8625 5.16352 11.9229C4.41901 11.8469 3.72753 11.8002 3.04448 11.6999C2.34706 11.5972 1.85088 11.1007 1.77553 10.4099ZM5.27009 3.11849C6.46865 3.11995 7.42631 4.0629 7.42582 5.24048C7.42532 6.41126 6.47014 7.35615 5.28596 7.35761C4.08541 7.35907 3.11586 6.41515 3.11685 5.24681C3.11834 4.0702 4.08294 3.11654 5.27009 3.11849Z" fill="#4B4B4B"/>
    </svg>
    